<?xml version="1.0" encoding="UTF-8" standalone="no"?>
<!DOCTYPE svg PUBLIC "-//W3C//DTD SVG 1.1//EN" "http://www.w3.org/Graphics/SVG/1.1/DTD/svg11.dtd">
<svg width="100%" height="100%" viewBox="0 0 1746 2532" version="1.1"
    xmlns="http://www.w3.org/2000/svg"
    xmlns:xlink="http://www.w3.org/1999/xlink" xml:space="preserve"
    xmlns:serif="http://www.serif.com/" style="fill-rule:evenodd;clip-rule:evenodd;">

    <!-- home button -->
    <g transform="matrix(-3.58509e-16,0.979255,-1.436406,-3.74914e-16,1617.17,-1689.94)">
        <path d="M1782.25,1.585C1782.25,0.848 1781.68,0.25 1780.97,0.25L1728.03,0.25C1727.32,0.25 1726.75,0.848 1726.75,1.585L1726.75,175.415C1726.75,176.152 1727.32,176.75 1728.03,176.75L1780.97,176.75C1781.68,176.75 1782.25,176.152 1782.25,175.415L1782.25,1.585Z" style="fill:url(#_Linear1);"/>
    </g>
    <g transform="matrix(-3.58509e-16,0.979255,-1.436406,-3.74914e-16,1617.17,-1689.94)">
        <path d="M1782.25,1.585C1782.25,0.848 1781.68,0.25 1780.97,0.25L1728.03,0.25C1727.32,0.25 1726.75,0.848 1726.75,1.585L1726.75,175.415C1726.75,176.152 1727.32,176.75 1728.03,176.75L1780.97,176.75C1781.68,176.75 1782.25,176.152 1782.25,175.415L1782.25,1.585Z" style="fill:none;stroke:rgb(86,87,89);stroke-width:0.5px;"/>
    </g>
    <g transform="matrix(-3.58509e-16,0.979255,-1.436406,-3.74914e-16,1615.3,-1686.51)">
        <path d="M1767,3.136C1767,1.957 1766.09,1 1764.96,1L1726.04,1C1724.91,1 1724,1.957 1724,3.136L1724,169.864C1724,171.043 1724.91,172 1726.04,172L1764.96,172C1766.09,172 1767,171.043 1767,169.864L1767,3.136Z" style="fill:url(#_Linear2);"/>
    </g>

    <!-- volume -->
    <g transform="matrix(-3.58509e-16,0.979255,-0.936406,-3.74914e-16,317.17,-1689.94)">
        <path d="M1782.25,1.585C1782.25,0.848 1781.68,0.25 1780.97,0.25L1728.03,0.25C1727.32,0.25 1726.75,0.848 1726.75,1.585L1726.75,175.415C1726.75,176.152 1727.32,176.75 1728.03,176.75L1780.97,176.75C1781.68,176.75 1782.25,176.152 1782.25,175.415L1782.25,1.585Z" style="fill:url(#_Linear1);"/>
    </g>
    <g transform="matrix(-3.58509e-16,0.979255,-0.936406,-3.74914e-16,317.17,-1689.94)">
        <path d="M1782.25,1.585C1782.25,0.848 1781.68,0.25 1780.97,0.25L1728.03,0.25C1727.32,0.25 1726.75,0.848 1726.75,1.585L1726.75,175.415C1726.75,176.152 1727.32,176.75 1728.03,176.75L1780.97,176.75C1781.68,176.75 1782.25,176.152 1782.25,175.415L1782.25,1.585Z" style="fill:none;stroke:rgb(86,87,89);stroke-width:0.5px;"/>
    </g>
    <g transform="matrix(-3.58509e-16,0.979255,-0.936406,-3.74914e-16,315.3,-1686.51)">
        <path d="M1767,3.136C1767,1.957 1766.09,1 1764.96,1L1726.04,1C1724.91,1 1724,1.957 1724,3.136L1724,169.864C1724,171.043 1724.91,172 1726.04,172L1764.96,172C1766.09,172 1767,171.043 1767,169.864L1767,3.136Z" style="fill:url(#_Linear2);"/>
    </g>
    <g transform="matrix(-3.58509e-16,0.979255,-0.936406,-3.74914e-16,517.17,-1689.94)">
        <path d="M1782.25,1.585C1782.25,0.848 1781.68,0.25 1780.97,0.25L1728.03,0.25C1727.32,0.25 1726.75,0.848 1726.75,1.585L1726.75,175.415C1726.75,176.152 1727.32,176.75 1728.03,176.75L1780.97,176.75C1781.68,176.75 1782.25,176.152 1782.25,175.415L1782.25,1.585Z" style="fill:url(#_Linear1);"/>
    </g>
    <g transform="matrix(-3.58509e-16,0.979255,-0.936406,-3.74914e-16,517.17,-1689.94)">
        <path d="M1782.25,1.585C1782.25,0.848 1781.68,0.25 1780.97,0.25L1728.03,0.25C1727.32,0.25 1726.75,0.848 1726.75,1.585L1726.75,175.415C1726.75,176.152 1727.32,176.75 1728.03,176.75L1780.97,176.75C1781.68,176.75 1782.25,176.152 1782.25,175.415L1782.25,1.585Z" style="fill:none;stroke:rgb(86,87,89);stroke-width:0.5px;"/>
    </g>
    <g transform="matrix(-3.58509e-16,0.979255,-0.936406,-3.74914e-16,515.3,-1686.51)">
        <path d="M1767,3.136C1767,1.957 1766.09,1 1764.96,1L1726.04,1C1724.91,1 1724,1.957 1724,3.136L1724,169.864C1724,171.043 1724.91,172 1726.04,172L1764.96,172C1766.09,172 1767,171.043 1767,169.864L1767,3.136Z" style="fill:url(#_Linear2);"/>
    </g>

    <!-- <g transform="matrix(0.936406,0,0,0.979255,1.02318e-12,0.742742)">
        <path d="M1729,11L1548,11L1548,5L1691.99,5.001L1694.37,5.008L1696.72,5.022L1699.02,5.042L1701.28,5.07L1703.5,5.105L1705.68,5.146L1707.82,5.194L1709.92,5.249L1711.99,5.311L1714.02,5.38L1716.01,5.456L1717.97,5.538L1719.9,5.628L1721.78,5.724L1723.64,5.826L1725.46,5.936L1727.25,6.052C1727.84,6.092 1728.42,6.133 1729,6.175L1729,11Z" style="fill-opacity:0.01;"/>
    </g> -->
    <!-- <g transform="matrix(-3.58509e-16,0.979255,-0.936406,-3.74914e-16,1940.23,-1620.9)">
        <path d="M1968,210.136C1968,208.957 1967.09,208 1965.96,208L1866.04,208C1864.91,208 1864,208.957 1864,210.136L1864,265.864C1864,267.043 1864.91,268 1866.04,268L1965.96,268C1967.09,268 1968,267.043 1968,265.864L1968,210.136Z" style="fill:url(#_Linear3);"/>
    </g> -->
    <!-- <g transform="matrix(-3.58509e-16,0.979255,-0.936406,-3.74914e-16,1930.87,-1630.7)">
        <rect x="1864" y="198" width="124" height="4" style="fill-opacity:0.01;"/>
    </g> -->
    <!-- <g transform="matrix(-3.58509e-16,0.979255,-0.936406,-3.74914e-16,1940.23,-1620.9)">
        <path d="M1968,210.136C1968,208.957 1967.09,208 1965.96,208L1866.04,208C1864.91,208 1864,208.957 1864,210.136L1864,265.864C1864,267.043 1864.91,268 1866.04,268L1965.96,268C1967.09,268 1968,267.043 1968,265.864L1968,210.136Z" style="fill:none;"/>
    </g> -->
    <!-- <g transform="matrix(-3.58509e-16,0.979255,-0.936406,-3.74914e-16,2057.28,-1498.5)">
        <path d="M1968,335.136C1968,333.957 1967.09,333 1965.96,333L1866.04,333C1864.91,333 1864,333.957 1864,335.136L1864,390.864C1864,392.043 1864.91,393 1866.04,393L1965.96,393C1967.09,393 1968,392.043 1968,390.864L1968,335.136Z" style="fill:url(#_Linear4);"/>
    </g> -->
    <g transform="matrix(-3.58509e-16,0.979255,-0.936406,-3.74914e-16,2053.54,-1502.41)">
        <rect x="1864" y="329" width="112" height="4" style="fill-opacity:0.01;"/>
    </g>
    <g transform="matrix(-3.58509e-16,0.979255,-0.936406,-3.74914e-16,2057.28,-1498.5)">
        <path d="M1968,335.136C1968,333.957 1967.09,333 1965.96,333L1866.04,333C1864.91,333 1864,333.957 1864,335.136L1864,390.864C1864,392.043 1864.91,393 1866.04,393L1965.96,393C1967.09,393 1968,392.043 1968,390.864L1968,335.136Z" style="fill:none;"/>
    </g>
    <g transform="matrix(-3.58509e-16,0.979255,-0.936406,-3.74914e-16,1745.46,-1816.75)">
        <path d="M4440,144.965C4440,67.164 4379.6,4 4305.2,4L1994.8,4C1920.4,4 1860,67.164 1860,144.965L1860,1723.04C1860,1800.84 1920.4,1864 1994.8,1864L4305.2,1864C4379.6,1864 4440,1800.84 4440,1723.04L4440,144.965Z" style="fill:rgb(80,83,92);"/>
    </g>
    <g transform="matrix(-3.58509e-16,0.979255,-0.936406,-3.74914e-16,1745.46,-1816.75)">
        <path d="M4440,144.965C4440,67.164 4379.6,4 4305.2,4L1994.8,4C1920.4,4 1860,67.164 1860,144.965L1860,1723.04C1860,1800.84 1920.4,1864 1994.8,1864L4305.2,1864C4379.6,1864 4440,1800.84 4440,1723.04L4440,144.965Z" style="fill:url(#_Linear5);"/>
    </g>
    <g transform="matrix(-3.58509e-16,0.979255,-0.936406,-3.74914e-16,1745.46,-1816.75)">
        <path d="M4440,144.965C4440,67.164 4379.6,4 4305.2,4L1994.8,4C1920.4,4 1860,67.164 1860,144.965L1860,1723.04C1860,1800.84 1920.4,1864 1994.8,1864L4305.2,1864C4379.6,1864 4440,1800.84 4440,1723.04L4440,144.965Z" style="fill:none;"/>
    </g>
    <g transform="matrix(-3.58509e-16,0.979255,-0.936406,-3.74914e-16,1745.46,-1797.17)">
        <path d="M4410,144.285C4410,72.379 4354.18,14 4285.41,14L1974.59,14C1905.82,14 1850,72.379 1850,144.285L1850,1723.72C1850,1795.62 1905.82,1854 1974.59,1854L4285.41,1854C4354.18,1854 4410,1795.62 4410,1723.72L4410,144.285Z" style="fill:rgb(17,17,17);"/>
    </g>
    <g transform="matrix(-3.58509e-16,0.979255,-0.936406,-3.74914e-16,1745.46,-1798.15)">
        <path d="M4411.5,144.319C4411.5,72.118 4355.45,13.5 4286.4,13.5L1975.6,13.5C1906.55,13.5 1850.5,72.118 1850.5,144.319L1850.5,1723.68C1850.5,1795.88 1906.55,1854.5 1975.6,1854.5L4286.4,1854.5C4355.45,1854.5 4411.5,1795.88 4411.5,1723.68L4411.5,144.319Z" style="fill:none;stroke:rgb(33,33,33);stroke-width:1px;"/>
    </g>
    <g transform="matrix(-3.58509e-16,0.979255,-0.936406,-3.74914e-16,923.296,-855.126)">
        <circle cx="930" cy="56" r="12" style="fill:url(#_Radial6);"/>
    </g>
    <g transform="matrix(-3.58509e-16,0.979255,-0.936406,-3.74914e-16,923.296,-855.126)">
        <circle cx="930" cy="56" r="7" style="fill:rgb(11,11,10);"/>
    </g>
    <g transform="matrix(0.936406,0,0,0.979255,1.02318e-12,0.742742)">
        <path d="M936.982,56.5C936.726,52.867 933.698,50 930,50C926.302,50 923.274,52.867 923.018,56.5C923.006,56.335 923,56.168 923,56C923,52.134 926.134,49 930,49C933.866,49 937,52.134 937,56C937,56.168 936.994,56.335 936.982,56.5Z" style="fill:rgb(0,114,255);"/>
    </g>
    <g transform="matrix(-3.58509e-16,0.979255,-0.936406,-3.74914e-16,923.296,-855.126)">
        <circle cx="930" cy="56" r="6" style="fill:rgb(8,7,22);"/>
    </g>
    <g transform="matrix(-3.82857e-16,1,-1,-3.82857e-16,986,-874)">
        <circle cx="930" cy="56" r="5" style="fill-opacity:0.01;"/>
    </g>
    <g transform="matrix(0.936406,0,0,0.979255,1.02318e-12,0.742742)">
        <g opacity="0.6">
            <path d="M925.004,56.217C926.08,57.292 927.916,58 930,58C932.084,58 933.92,57.292 934.995,56.217C934.882,58.878 932.689,61 930,61C927.311,61 925.118,58.878 925.004,56.217Z" style="fill:rgb(58,111,180);"/>
        </g>
        <g opacity="0.6">
            <path d="M925.004,55.783C926.08,54.708 927.916,54 930,54C932.084,54 933.92,54.708 934.995,55.783C934.882,53.123 932.689,51 930,51C927.311,51 925.118,53.123 925.004,55.783Z" style="fill:rgb(26,102,133);"/>
        </g>
        <g>
            <path d="M925.025,55.5C925.276,58.027 927.407,60 930,60C932.593,60 934.724,58.027 934.975,55.5C934.992,55.664 935,55.831 935,56C935,58.761 932.761,61 930,61C927.239,61 925,58.761 925,56C925,55.831 925.008,55.664 925.025,55.5Z" style="fill:rgb(58,111,180);"/>
        </g>
        <g>
            <path d="M925.025,56.5C925.276,53.973 927.407,52 930,52C932.593,52 934.724,53.973 934.975,56.5C934.992,56.336 935,56.169 935,56C935,53.239 932.761,51 930,51C927.239,51 925,53.239 925,56C925,56.169 925.008,56.336 925.025,56.5Z" style="fill:rgb(26,102,133);"/>
        </g>
        <g transform="matrix(-3.82857e-16,1,-1,-3.82857e-16,986,-874)">
            <circle cx="930" cy="56" r="2" style="fill:rgb(8,7,22);"/>
        </g>
        <g>
            <path d="M937,54L937,58L935,57L925,57L923,58L923,54L925,55L935,55L937,54Z" style="fill:rgb(8,7,22);"/>
        </g>
        <g transform="matrix(-3.82857e-16,1,-1,-3.82857e-16,986,-878)">
            <circle cx="932" cy="54" r="1" style="fill:rgb(167,77,185);"/>
        </g>
        <g transform="matrix(-3.82857e-16,1,-1,-3.82857e-16,986,-878)">
            <circle cx="932" cy="54" r="1" style="fill:rgb(167,77,185);"/>
        </g>
        <g transform="matrix(-3.82857e-16,1,-1,-3.82857e-16,986,-878)">
            <circle cx="932" cy="54" r="1" style="fill:rgb(167,77,185);"/>
        </g>
        <g transform="matrix(-3.82857e-16,1,-1,-3.82857e-16,985,-869)">
            <circle cx="927" cy="58" r="1" style="fill:rgb(61,156,164);"/>
        </g>
        <g transform="matrix(-3.82857e-16,1,-1,-3.82857e-16,985,-869)">
            <circle cx="927" cy="58" r="1" style="fill:rgb(61,156,164);"/>
        </g>
        <g transform="matrix(-3.82857e-16,1,-1,-3.82857e-16,985,-869)">
            <circle cx="927" cy="58" r="1" style="fill:rgb(61,156,164);"/>
        </g>
    </g>
    <!-- SCREEN -->
    <!-- <g transform="matrix(-3.67685e-16,0.960371,-0.90799,-3.4763e-16,1718.79,-1557.47)">
        <path d="M4128,153.155C4128,128.233 4108.87,108 4085.31,108L1798.69,108C1775.13,108 1756,128.233 1756,153.155L1756,1714.85C1756,1739.77 1775.13,1760 1798.69,1760L4085.31,1760C4108.87,1760 4128,1739.77 4128,1714.85L4128,153.155Z" style="fill:rgb(32,0,0);"/>
    </g>
    <g transform="matrix(-3.47373e-16,0.960169,-0.907317,-3.67607e-16,1718.16,-1545.36)">
        <path d="M4110,152.575C4110,131.285 4093.67,114 4073.55,114L1786.45,114C1766.33,114 1750,131.285 1750,152.575L1750,1715.42C1750,1736.72 1766.33,1754 1786.45,1754L4073.55,1754C4093.67,1754 4110,1736.72 4110,1715.42L4110,152.575Z" style="fill:rgb(255,0,0);"/>
    </g> -->
    <defs>
        <linearGradient id="_Linear1" x1="0" y1="0" x2="1" y2="0" gradientUnits="userSpaceOnUse" gradientTransform="matrix(1.08381e-14,177,-177,1.08381e-14,1727,0)">
            <stop offset="0" style="stop-color:rgb(147,148,153);stop-opacity:1"/>
            <stop offset="0.02" style="stop-color:rgb(176,177,183);stop-opacity:1"/>
            <stop offset="0.98" style="stop-color:rgb(176,177,183);stop-opacity:1"/>
            <stop offset="1" style="stop-color:rgb(147,148,153);stop-opacity:1"/>
        </linearGradient>
        <linearGradient id="_Linear2" x1="0" y1="0" x2="1" y2="0" gradientUnits="userSpaceOnUse" gradientTransform="matrix(9.24608e-15,151,-151,9.24608e-15,1726.51,11)">
            <stop offset="0" style="stop-color:rgb(122,123,128);stop-opacity:1"/>
            <stop offset="0.16" style="stop-color:rgb(122,123,128);stop-opacity:1"/>
            <stop offset="0.5" style="stop-color:rgb(184,186,191);stop-opacity:1"/>
            <stop offset="0.83" style="stop-color:rgb(122,123,128);stop-opacity:1"/>
            <stop offset="1" style="stop-color:rgb(122,123,128);stop-opacity:1"/>
        </linearGradient>
        <linearGradient id="_Linear3" x1="0" y1="0" x2="1" y2="0" gradientUnits="userSpaceOnUse" gradientTransform="matrix(-104,1.27363e-14,-1.27363e-14,-104,1968,208)">
            <stop offset="0" style="stop-color:rgb(207,209,214);stop-opacity:1"/>
            <stop offset="0.02" style="stop-color:rgb(181,182,187);stop-opacity:1"/>
            <stop offset="0.05" style="stop-color:rgb(96,96,101);stop-opacity:1"/>
            <stop offset="0.06" style="stop-color:rgb(78,80,83);stop-opacity:1"/>
            <stop offset="0.08" style="stop-color:rgb(96,96,101);stop-opacity:1"/>
            <stop offset="0.13" style="stop-color:rgb(207,209,214);stop-opacity:1"/>
            <stop offset="0.87" style="stop-color:rgb(207,209,214);stop-opacity:1"/>
            <stop offset="0.92" style="stop-color:rgb(96,96,101);stop-opacity:1"/>
            <stop offset="0.94" style="stop-color:rgb(78,80,83);stop-opacity:1"/>
            <stop offset="0.95" style="stop-color:rgb(96,96,101);stop-opacity:1"/>
            <stop offset="0.98" style="stop-color:rgb(181,182,187);stop-opacity:1"/>
            <stop offset="1" style="stop-color:rgb(207,209,214);stop-opacity:1"/>
        </linearGradient>
        <linearGradient id="_Linear4" x1="0" y1="0" x2="1" y2="0" gradientUnits="userSpaceOnUse" gradientTransform="matrix(-104,1.27363e-14,-1.27363e-14,-104,1968,333)">
            <stop offset="0" style="stop-color:rgb(207,209,214);stop-opacity:1"/>
            <stop offset="0.02" style="stop-color:rgb(181,182,187);stop-opacity:1"/>
            <stop offset="0.05" style="stop-color:rgb(96,96,101);stop-opacity:1"/>
            <stop offset="0.06" style="stop-color:rgb(78,80,83);stop-opacity:1"/>
            <stop offset="0.08" style="stop-color:rgb(96,96,101);stop-opacity:1"/>
            <stop offset="0.13" style="stop-color:rgb(207,209,214);stop-opacity:1"/>
            <stop offset="0.87" style="stop-color:rgb(207,209,214);stop-opacity:1"/>
            <stop offset="0.92" style="stop-color:rgb(96,96,101);stop-opacity:1"/>
            <stop offset="0.94" style="stop-color:rgb(78,80,83);stop-opacity:1"/>
            <stop offset="0.95" style="stop-color:rgb(96,96,101);stop-opacity:1"/>
            <stop offset="0.98" style="stop-color:rgb(181,182,187);stop-opacity:1"/>
            <stop offset="1" style="stop-color:rgb(207,209,214);stop-opacity:1"/>
        </linearGradient>
        <linearGradient id="_Linear5" x1="0" y1="0" x2="1" y2="0" gradientUnits="userSpaceOnUse" gradientTransform="matrix(1290,0,0,1290,3150,1399)">
            <stop offset="0" style="stop-color:black;stop-opacity:0.01"/>
            <stop offset="1" style="stop-color:black;stop-opacity:0.35"/>
        </linearGradient>
        <radialGradient id="_Radial6" cx="0" cy="0" r="1" gradientUnits="userSpaceOnUse" gradientTransform="matrix(-4.59428e-15,-12,19.4758,-7.45644e-15,930,68)">
            <stop offset="0" style="stop-color:rgb(20,20,22);stop-opacity:1"/>
            <stop offset="0" style="stop-color:rgb(33,33,35);stop-opacity:1"/>
            <stop offset="1" style="stop-color:rgb(20,20,22);stop-opacity:1"/>
        </radialGradient>
    </defs>
</svg>
