<svg width="1295" height="2590" viewBox="0 0 1295 2590" fill="none" xmlns="http://www.w3.org/2000/svg">
<g clip-path="url(#clip0_0_129)">
<path fill-rule="evenodd" clip-rule="evenodd" d="M235 0H1060C1218.59 0 1287 78.409 1287 227V2363C1287 2506.59 1213.59 2590 1060 2590H235C76.409 2590 8 2511.59 8 2363V227C8 78.409 76.409 0 235 0Z" fill="black"/>
<g filter="url(#filter0_i_0_129)">
<path fill-rule="evenodd" clip-rule="evenodd" d="M235 6C83.4846 6 14 77.8367 14 227V2363C14 2512.16 83.4846 2584 235 2584H1060C1206.58 2584 1281 2507.1 1281 2363V227C1281 77.8367 1211.52 6 1060 6H235Z" fill="#F8F8F8"/>
</g>
<path fill-rule="evenodd" clip-rule="evenodd" d="M18.2286 163.856C35.359 64.0445 104.973 19 235 19H1060C1190.03 19 1259.64 64.0445 1276.77 163.856C1252.41 74.5544 1183.59 28 1060 28H235C111.407 28 42.585 74.5544 18.2286 163.856ZM17.3775 2420.94C32.9413 2524.4 102.698 2571 235 2571H1060C1189.67 2571 1262.87 2519.25 1278.03 2415.47C1254.22 2507.96 1182.7 2560 1060 2560H235C109.936 2560 40.954 2512.33 17.3775 2420.94Z" fill="url(#paint0_linear_0_129)"/>
<path fill-rule="evenodd" clip-rule="evenodd" d="M18.2286 163.856C35.359 64.0445 104.973 19 235 19H1060C1190.03 19 1259.64 64.0445 1276.77 163.856C1252.41 74.5544 1183.59 28 1060 28H235C111.407 28 42.585 74.5544 18.2286 163.856ZM17.3775 2420.94C32.9413 2524.4 102.698 2571 235 2571H1060C1189.67 2571 1262.87 2519.25 1278.03 2415.47C1254.22 2507.96 1182.7 2560 1060 2560H235C109.936 2560 40.954 2512.33 17.3775 2420.94Z" fill="url(#paint1_linear_0_129)"/>
<path fill-rule="evenodd" clip-rule="evenodd" d="M235 28H1060C1218.59 28 1287 104.653 1287 249.917V2338.08C1287 2478.46 1213.59 2560 1060 2560H235C76.409 2560 8 2483.35 8 2338.08V249.917C8 104.653 76.409 28 235 28Z" fill="url(#paint2_linear_0_129)"/>
<path fill-rule="evenodd" clip-rule="evenodd" d="M235 28H1060C1218.59 28 1287 104.653 1287 249.917V2338.08C1287 2478.46 1213.59 2560 1060 2560H235C76.409 2560 8 2483.35 8 2338.08V249.917C8 104.653 76.409 28 235 28Z" fill="url(#paint3_linear_0_129)"/>
<path d="M28.5 227C28.5 155.742 44.6034 104.21 78.2775 70.4715C111.951 36.7334 163.482 20.5 235 20.5H1060C1131.52 20.5 1183.05 36.7334 1216.72 70.4715C1250.4 104.21 1266.5 155.742 1266.5 227V2363C1266.5 2431.7 1249.17 2483.25 1214.86 2517.64C1180.54 2552.03 1128.99 2569.5 1060 2569.5H235C163.482 2569.5 111.951 2553.27 78.2775 2519.53C44.6034 2485.79 28.5 2434.26 28.5 2363V227Z" fill="url(#paint4_linear_0_129)" stroke="black" stroke-width="3"/>
<g filter="url(#filter1_dd_0_129)">
<path fill-rule="evenodd" clip-rule="evenodd" d="M235 31H1060C1196.04 31 1255 90.073 1255 226V2362C1255 2492.91 1191.05 2557 1060 2557H235C98.9599 2557 40 2497.93 40 2362V226C40 90.073 98.9599 31 235 31Z" fill="url(#paint5_linear_0_129)"/>
<path fill-rule="evenodd" clip-rule="evenodd" d="M235 31H1060C1196.04 31 1255 90.073 1255 226V2362C1255 2492.91 1191.05 2557 1060 2557H235C98.9599 2557 40 2497.93 40 2362V226C40 90.073 98.9599 31 235 31Z" fill="url(#paint6_radial_0_129)"/>
</g>
<path d="M235 51C110.051 51 60 101.073 60 226V2362C60 2486.93 110.051 2537 235 2537H1060C1179.95 2537 1235 2481.92 1235 2362V226C1235 101.073 1184.95 51 1060 51H235Z" fill="black"/>
</g>
<g clip-path="url(#clip1_0_129)">
<g filter="url(#filter2_i_0_129)">
<path fill-rule="evenodd" clip-rule="evenodd" d="M593 2586C620 2586 675.772 2586 703 2586C703.233 2586 703.464 2586 703.692 2586C710.309 2586.06 709.661 2590 703.045 2590H592.955C586.339 2590 585.691 2586.06 592.308 2586C592.536 2586 592.767 2586 593 2586Z" fill="#343434"/>
</g>
</g>
<g clip-path="url(#clip2_0_129)">
<g filter="url(#filter3_i_0_129)">
<path fill-rule="evenodd" clip-rule="evenodd" d="M130.945 48.6542C69.0045 75.1636 40.9999 132.377 40.9999 226.118V2363.54C40.9999 2451.7 69.96 2509.57 128.839 2538C128.839 2534.84 62.9999 2491.08 62.9999 2373.55C62.9999 2316.68 62.9999 279.513 62.9999 215.92C62.9999 91.9397 130.945 48.6542 130.945 48.6542Z" fill="white" fill-opacity="0.599524"/>
</g>
<g filter="url(#filter4_i_0_129)">
<path fill-rule="evenodd" clip-rule="evenodd" d="M1166.05 48.6542C1227.99 75.1636 1256 132.377 1256 226.118V2363.54C1256 2451.7 1227.04 2509.57 1168.16 2538C1168.16 2534.84 1234 2491.08 1234 2373.55C1234 2316.68 1234 279.513 1234 215.92C1234 91.9397 1166.05 48.6542 1166.05 48.6542Z" fill="white" fill-opacity="0.599524"/>
</g>
</g>
<rect opacity="0.602808" x="8" y="248" width="22" height="18" fill="#818183"/>
<rect opacity="0.602808" x="1265" y="248" width="22" height="18" fill="#818183"/>
<rect opacity="0.602808" x="1021" y="22" width="22" height="18" transform="rotate(-90 1021 22)" fill="#818183"/>
<rect opacity="0.602808" x="256" y="2590" width="22" height="18" transform="rotate(-90 256 2590)" fill="#818183"/>
<rect opacity="0.602808" x="8" y="2324" width="22" height="18" fill="#818183"/>
<rect opacity="0.602808" x="1265" y="2324" width="22" height="18" fill="#818183"/>
<g clip-path="url(#clip3_0_129)">
<g filter="url(#filter5_ii_0_129)">
<path fill-rule="evenodd" clip-rule="evenodd" d="M6.98099 350C3.1255 350 0 353.134 0 357V443C0 446.866 3.1255 450 6.98099 450H10.9701C10.9701 444.74 11.0373 355.142 10.9701 350H6.98099Z" fill="url(#paint7_linear_0_129)"/>
</g>
<g filter="url(#filter6_ii_0_129)">
<path fill-rule="evenodd" clip-rule="evenodd" d="M6.98099 533C4.71124 533.559 1.98946 534.99 0.536131 537.023C0.236782 537.441 0 538.766 0 539.149C0 558.369 0 616.91 0 714.771C0 715.18 0.333279 717.246 0.537344 717.746C1.71342 720.633 3.75686 721.331 6.98099 723H10.9701C10.9701 717.74 11.0373 538.142 10.9701 533H6.98099Z" fill="url(#paint8_linear_0_129)"/>
</g>
<g filter="url(#filter7_ii_0_129)">
<path fill-rule="evenodd" clip-rule="evenodd" d="M6.98099 770C4.71124 770.559 1.98946 771.99 0.536131 774.023C0.236782 774.441 0 775.766 0 776.149C0 795.369 0 853.91 0 951.771C0 952.18 0.333279 954.246 0.537344 954.746C1.71342 957.633 3.75686 958.331 6.98099 960H10.9701C10.9701 954.74 11.0373 775.142 10.9701 770H6.98099Z" fill="url(#paint9_linear_0_129)"/>
</g>
<g filter="url(#filter8_ii_0_129)">
<path fill-rule="evenodd" clip-rule="evenodd" d="M1288.02 595C1290.29 595.559 1293.01 596.99 1294.46 599.023C1294.76 599.441 1294.97 600.766 1294.97 601.149C1294.97 620.369 1295 790.91 1295 888.771C1295 889.18 1294.67 891.246 1294.46 891.746C1293.29 894.633 1291.24 895.331 1288.02 897H1284.03C1284.03 891.74 1283.96 600.142 1284.03 595H1288.02Z" fill="url(#paint10_linear_0_129)"/>
<path fill-rule="evenodd" clip-rule="evenodd" d="M1288.02 595C1290.29 595.559 1293.01 596.99 1294.46 599.023C1294.76 599.441 1294.97 600.766 1294.97 601.149C1294.97 620.369 1295 790.91 1295 888.771C1295 889.18 1294.67 891.246 1294.46 891.746C1293.29 894.633 1291.24 895.331 1288.02 897H1284.03C1284.03 891.74 1283.96 600.142 1284.03 595H1288.02Z" fill="url(#paint11_linear_0_129)"/>
</g>
</g>
<g opacity="0.801364" clip-path="url(#clip4_0_129)">
<rect x="570" y="93" width="156" height="21" rx="10.5" fill="#1D1C1C"/>
<mask id="mask0_0_129" style="mask-type:luminance" maskUnits="userSpaceOnUse" x="570" y="93" width="156" height="21">
<rect x="570" y="93" width="156" height="21" rx="10.5" fill="white"/>
</mask>
<g mask="url(#mask0_0_129)">
<path fill-rule="evenodd" clip-rule="evenodd" d="M570 93H726V94.4286H570V93ZM570 97.2857H726V98.7143H570V97.2857ZM726 101.571H570V103H726V101.571ZM570 105.857H726V107.286H570V105.857ZM726 110.143H570V111.571H726V110.143Z" fill="black" fill-opacity="0.15"/>
<path fill-rule="evenodd" clip-rule="evenodd" d="M570 96H726V97.4286H570V96ZM570 100.286H726V101.714H570V100.286ZM726 104.571H570V106H726V104.571ZM570 108.857H726V110.286H570V108.857ZM726 113.143H570V114.571H726V113.143Z" fill="white" fill-opacity="0.03"/>
<path fill-rule="evenodd" clip-rule="evenodd" d="M571.669 91.5714H573.338V115.857H571.669V91.5714ZM576.677 91.5714H578.346V115.857H576.677V91.5714ZM583.353 91.5714H581.684V115.857H583.353V91.5714ZM586.691 91.5714H588.36V115.857H586.691V91.5714ZM593.368 91.5714H591.699V115.857H593.368V91.5714ZM596.706 91.5714H598.375V115.857H596.706V91.5714ZM603.382 91.5714H601.713V115.857H603.382V91.5714ZM606.721 91.5714H608.39V115.857H606.721V91.5714ZM613.397 91.5714H611.728V115.857H613.397V91.5714ZM616.735 91.5714H618.404V115.857H616.735V91.5714ZM623.412 91.5714H621.743V115.857H623.412V91.5714ZM626.75 91.5714H628.419V115.857H626.75V91.5714ZM633.427 91.5714H631.757V115.857H633.427V91.5714ZM636.765 91.5714H638.434V115.857H636.765V91.5714ZM643.441 91.5714H641.772V115.857H643.441V91.5714ZM646.779 91.5714H648.449V115.857H646.779V91.5714ZM653.456 91.5714H651.787V115.857H653.456V91.5714ZM656.794 91.5714H658.463V115.857H656.794V91.5714ZM663.471 91.5714H661.802V115.857H663.471V91.5714ZM666.809 91.5714H668.478V115.857H666.809V91.5714ZM673.485 91.5714H671.816V115.857H673.485V91.5714ZM676.824 91.5714H678.493V115.857H676.824V91.5714ZM683.5 91.5714H681.831V115.857H683.5V91.5714ZM686.838 91.5714H688.507V115.857H686.838V91.5714ZM693.515 91.5714H691.846V115.857H693.515V91.5714ZM696.853 91.5714H698.522V115.857H696.853V91.5714ZM703.529 91.5714H701.86V115.857H703.529V91.5714ZM706.868 91.5714H708.537V115.857H706.868V91.5714ZM713.544 91.5714H711.875V115.857H713.544V91.5714ZM716.882 91.5714H718.552V115.857H716.882V91.5714ZM723.559 91.5714H721.89V115.857H723.559V91.5714Z" fill="black" fill-opacity="0.15"/>
<path fill-rule="evenodd" clip-rule="evenodd" d="M568.669 91.5714H570.338V115.857H568.669V91.5714ZM573.677 91.5714H575.346V115.857H573.677V91.5714ZM580.353 91.5714H578.684V115.857H580.353V91.5714ZM583.691 91.5714H585.36V115.857H583.691V91.5714ZM590.368 91.5714H588.699V115.857H590.368V91.5714ZM593.706 91.5714H595.375V115.857H593.706V91.5714ZM600.382 91.5714H598.713V115.857H600.382V91.5714ZM603.721 91.5714H605.39V115.857H603.721V91.5714ZM610.397 91.5714H608.728V115.857H610.397V91.5714ZM613.735 91.5714H615.404V115.857H613.735V91.5714ZM620.412 91.5714H618.743V115.857H620.412V91.5714ZM623.75 91.5714H625.419V115.857H623.75V91.5714ZM630.427 91.5714H628.757V115.857H630.427V91.5714ZM633.765 91.5714H635.434V115.857H633.765V91.5714ZM640.441 91.5714H638.772V115.857H640.441V91.5714ZM643.779 91.5714H645.449V115.857H643.779V91.5714ZM650.456 91.5714H648.787V115.857H650.456V91.5714ZM653.794 91.5714H655.463V115.857H653.794V91.5714ZM660.471 91.5714H658.802V115.857H660.471V91.5714ZM663.809 91.5714H665.478V115.857H663.809V91.5714ZM670.485 91.5714H668.816V115.857H670.485V91.5714ZM673.824 91.5714H675.493V115.857H673.824V91.5714ZM680.5 91.5714H678.831V115.857H680.5V91.5714ZM683.838 91.5714H685.507V115.857H683.838V91.5714ZM690.515 91.5714H688.846V115.857H690.515V91.5714ZM693.853 91.5714H695.522V115.857H693.853V91.5714ZM700.529 91.5714H698.86V115.857H700.529V91.5714ZM703.868 91.5714H705.537V115.857H703.868V91.5714ZM710.544 91.5714H708.875V115.857H710.544V91.5714ZM713.882 91.5714H715.552V115.857H713.882V91.5714ZM720.559 91.5714H718.89V115.857H720.559V91.5714Z" fill="white" fill-opacity="0.03"/>
</g>
<g opacity="0.244441" filter="url(#filter9_iii_0_129)">
<rect x="570" y="93" width="156" height="21" rx="10.5" fill="black" fill-opacity="0.01"/>
</g>
<mask id="mask1_0_129" style="mask-type:luminance" maskUnits="userSpaceOnUse" x="570" y="93" width="156" height="21">
<rect x="570" y="93" width="156" height="21" rx="10.5" fill="white"/>
</mask>
<g mask="url(#mask1_0_129)">
</g>
</g>
<g clip-path="url(#clip5_0_129)">
<circle cx="785" cy="103" r="19" fill="url(#paint12_radial_0_129)"/>
<g opacity="0.387535" filter="url(#filter10_dd_0_129)">
<circle cx="785" cy="103" r="10" fill="url(#paint13_radial_0_129)"/>
</g>
<mask id="mask2_0_129" style="mask-type:luminance" maskUnits="userSpaceOnUse" x="775" y="93" width="20" height="20">
<circle cx="785" cy="103" r="10" fill="white"/>
</mask>
<g mask="url(#mask2_0_129)">
<g filter="url(#filter11_f_0_129)">
<ellipse cx="777.423" cy="101.268" rx="8.26305" ry="2.76917" transform="rotate(-76 777.423 101.268)" fill="#3E89CC"/>
</g>
<g filter="url(#filter12_f_0_129)">
<ellipse cx="793" cy="100.5" rx="6" ry="7.5" fill="#1C5894"/>
</g>
<g filter="url(#filter13_f_0_129)">
<ellipse cx="787.103" cy="110.733" rx="8.89806" ry="5.80701" transform="rotate(-16 787.103 110.733)" fill="#0A152B"/>
</g>
</g>
</g>
<mask id="mask3_0_129" style="mask-type:luminance" maskUnits="userSpaceOnUse" x="85" y="77" width="1125" height="2436">
<path fill-rule="evenodd" clip-rule="evenodd" d="M961 103V104C961 131.794 939.794 167 891 167H405C356.206 167 335 131.794 335 104V103C335 90.145 335 77 312 77H215C133.935 77 85 125.935 85 207V2383C85 2464.07 133.935 2513 215 2513H1080C1161.07 2513 1210 2464.07 1210 2383V207C1210 125.935 1161.07 77 1080 77H984C961 77 961 90.145 961 103Z" fill="white"/>
</mask>
<g mask="url(#mask3_0_129)">
<rect x="85" y="77" width="1125" height="2436" fill="#1D2129"/>
</g>
<defs>
<filter id="filter0_i_0_129" x="14" y="6" width="1267" height="2578" filterUnits="userSpaceOnUse" color-interpolation-filters="sRGB">
<feFlood flood-opacity="0" result="BackgroundImageFix"/>
<feBlend mode="normal" in="SourceGraphic" in2="BackgroundImageFix" result="shape"/>
<feColorMatrix in="SourceAlpha" type="matrix" values="0 0 0 0 0 0 0 0 0 0 0 0 0 0 0 0 0 0 127 0" result="hardAlpha"/>
<feOffset/>
<feGaussianBlur stdDeviation="4"/>
<feComposite in2="hardAlpha" operator="arithmetic" k2="-1" k3="1"/>
<feColorMatrix type="matrix" values="0 0 0 0 0 0 0 0 0 0 0 0 0 0 0 0 0 0 0.5 0"/>
<feBlend mode="normal" in2="shape" result="effect1_innerShadow_0_129"/>
</filter>
<filter id="filter1_dd_0_129" x="40" y="28" width="1215" height="2532" filterUnits="userSpaceOnUse" color-interpolation-filters="sRGB">
<feFlood flood-opacity="0" result="BackgroundImageFix"/>
<feColorMatrix in="SourceAlpha" type="matrix" values="0 0 0 0 0 0 0 0 0 0 0 0 0 0 0 0 0 0 127 0" result="hardAlpha"/>
<feOffset dy="3"/>
<feColorMatrix type="matrix" values="0 0 0 0 0 0 0 0 0 0 0 0 0 0 0 0 0 0 0.5 0"/>
<feBlend mode="normal" in2="BackgroundImageFix" result="effect1_dropShadow_0_129"/>
<feColorMatrix in="SourceAlpha" type="matrix" values="0 0 0 0 0 0 0 0 0 0 0 0 0 0 0 0 0 0 127 0" result="hardAlpha"/>
<feOffset dy="-3"/>
<feColorMatrix type="matrix" values="0 0 0 0 0 0 0 0 0 0 0 0 0 0 0 0 0 0 0.5 0"/>
<feBlend mode="normal" in2="effect1_dropShadow_0_129" result="effect2_dropShadow_0_129"/>
<feBlend mode="normal" in="SourceGraphic" in2="effect2_dropShadow_0_129" result="shape"/>
</filter>
<filter id="filter2_i_0_129" x="587.657" y="2586" width="120.686" height="5" filterUnits="userSpaceOnUse" color-interpolation-filters="sRGB">
<feFlood flood-opacity="0" result="BackgroundImageFix"/>
<feBlend mode="normal" in="SourceGraphic" in2="BackgroundImageFix" result="shape"/>
<feColorMatrix in="SourceAlpha" type="matrix" values="0 0 0 0 0 0 0 0 0 0 0 0 0 0 0 0 0 0 127 0" result="hardAlpha"/>
<feOffset dy="1"/>
<feGaussianBlur stdDeviation="1"/>
<feComposite in2="hardAlpha" operator="arithmetic" k2="-1" k3="1"/>
<feColorMatrix type="matrix" values="0 0 0 0 0.592157 0 0 0 0 0.592157 0 0 0 0 0.592157 0 0 0 1 0"/>
<feBlend mode="normal" in2="shape" result="effect1_innerShadow_0_129"/>
</filter>
<filter id="filter3_i_0_129" x="41" y="48.6542" width="100.945" height="2489.35" filterUnits="userSpaceOnUse" color-interpolation-filters="sRGB">
<feFlood flood-opacity="0" result="BackgroundImageFix"/>
<feBlend mode="normal" in="SourceGraphic" in2="BackgroundImageFix" result="shape"/>
<feColorMatrix in="SourceAlpha" type="matrix" values="0 0 0 0 0 0 0 0 0 0 0 0 0 0 0 0 0 0 127 0" result="hardAlpha"/>
<feOffset dx="11"/>
<feGaussianBlur stdDeviation="8.5"/>
<feComposite in2="hardAlpha" operator="arithmetic" k2="-1" k3="1"/>
<feColorMatrix type="matrix" values="0 0 0 0 0 0 0 0 0 0 0 0 0 0 0 0 0 0 0.6 0"/>
<feBlend mode="normal" in2="shape" result="effect1_innerShadow_0_129"/>
</filter>
<filter id="filter4_i_0_129" x="1166.05" y="48.6542" width="100.945" height="2489.35" filterUnits="userSpaceOnUse" color-interpolation-filters="sRGB">
<feFlood flood-opacity="0" result="BackgroundImageFix"/>
<feBlend mode="normal" in="SourceGraphic" in2="BackgroundImageFix" result="shape"/>
<feColorMatrix in="SourceAlpha" type="matrix" values="0 0 0 0 0 0 0 0 0 0 0 0 0 0 0 0 0 0 127 0" result="hardAlpha"/>
<feOffset dx="11"/>
<feGaussianBlur stdDeviation="8.5"/>
<feComposite in2="hardAlpha" operator="arithmetic" k2="-1" k3="1"/>
<feColorMatrix type="matrix" values="0 0 0 0 0 0 0 0 0 0 0 0 0 0 0 0 0 0 0.6 0"/>
<feBlend mode="normal" in2="shape" result="effect1_innerShadow_0_129"/>
</filter>
<filter id="filter5_ii_0_129" x="0" y="347" width="11" height="106" filterUnits="userSpaceOnUse" color-interpolation-filters="sRGB">
<feFlood flood-opacity="0" result="BackgroundImageFix"/>
<feBlend mode="normal" in="SourceGraphic" in2="BackgroundImageFix" result="shape"/>
<feColorMatrix in="SourceAlpha" type="matrix" values="0 0 0 0 0 0 0 0 0 0 0 0 0 0 0 0 0 0 127 0" result="hardAlpha"/>
<feOffset dy="6"/>
<feGaussianBlur stdDeviation="1.5"/>
<feComposite in2="hardAlpha" operator="arithmetic" k2="-1" k3="1"/>
<feColorMatrix type="matrix" values="0 0 0 0 0 0 0 0 0 0 0 0 0 0 0 0 0 0 0.757614 0"/>
<feBlend mode="normal" in2="shape" result="effect1_innerShadow_0_129"/>
<feColorMatrix in="SourceAlpha" type="matrix" values="0 0 0 0 0 0 0 0 0 0 0 0 0 0 0 0 0 0 127 0" result="hardAlpha"/>
<feOffset dy="-6"/>
<feGaussianBlur stdDeviation="1.5"/>
<feComposite in2="hardAlpha" operator="arithmetic" k2="-1" k3="1"/>
<feColorMatrix type="matrix" values="0 0 0 0 0 0 0 0 0 0 0 0 0 0 0 0 0 0 0.757614 0"/>
<feBlend mode="normal" in2="effect1_innerShadow_0_129" result="effect2_innerShadow_0_129"/>
</filter>
<filter id="filter6_ii_0_129" x="0" y="530" width="11" height="196" filterUnits="userSpaceOnUse" color-interpolation-filters="sRGB">
<feFlood flood-opacity="0" result="BackgroundImageFix"/>
<feBlend mode="normal" in="SourceGraphic" in2="BackgroundImageFix" result="shape"/>
<feColorMatrix in="SourceAlpha" type="matrix" values="0 0 0 0 0 0 0 0 0 0 0 0 0 0 0 0 0 0 127 0" result="hardAlpha"/>
<feOffset dy="6"/>
<feGaussianBlur stdDeviation="1.5"/>
<feComposite in2="hardAlpha" operator="arithmetic" k2="-1" k3="1"/>
<feColorMatrix type="matrix" values="0 0 0 0 0 0 0 0 0 0 0 0 0 0 0 0 0 0 0.757614 0"/>
<feBlend mode="normal" in2="shape" result="effect1_innerShadow_0_129"/>
<feColorMatrix in="SourceAlpha" type="matrix" values="0 0 0 0 0 0 0 0 0 0 0 0 0 0 0 0 0 0 127 0" result="hardAlpha"/>
<feOffset dy="-6"/>
<feGaussianBlur stdDeviation="1.5"/>
<feComposite in2="hardAlpha" operator="arithmetic" k2="-1" k3="1"/>
<feColorMatrix type="matrix" values="0 0 0 0 0 0 0 0 0 0 0 0 0 0 0 0 0 0 0.757614 0"/>
<feBlend mode="normal" in2="effect1_innerShadow_0_129" result="effect2_innerShadow_0_129"/>
</filter>
<filter id="filter7_ii_0_129" x="0" y="767" width="11" height="196" filterUnits="userSpaceOnUse" color-interpolation-filters="sRGB">
<feFlood flood-opacity="0" result="BackgroundImageFix"/>
<feBlend mode="normal" in="SourceGraphic" in2="BackgroundImageFix" result="shape"/>
<feColorMatrix in="SourceAlpha" type="matrix" values="0 0 0 0 0 0 0 0 0 0 0 0 0 0 0 0 0 0 127 0" result="hardAlpha"/>
<feOffset dy="6"/>
<feGaussianBlur stdDeviation="1.5"/>
<feComposite in2="hardAlpha" operator="arithmetic" k2="-1" k3="1"/>
<feColorMatrix type="matrix" values="0 0 0 0 0 0 0 0 0 0 0 0 0 0 0 0 0 0 0.757614 0"/>
<feBlend mode="normal" in2="shape" result="effect1_innerShadow_0_129"/>
<feColorMatrix in="SourceAlpha" type="matrix" values="0 0 0 0 0 0 0 0 0 0 0 0 0 0 0 0 0 0 127 0" result="hardAlpha"/>
<feOffset dy="-6"/>
<feGaussianBlur stdDeviation="1.5"/>
<feComposite in2="hardAlpha" operator="arithmetic" k2="-1" k3="1"/>
<feColorMatrix type="matrix" values="0 0 0 0 0 0 0 0 0 0 0 0 0 0 0 0 0 0 0.757614 0"/>
<feBlend mode="normal" in2="effect1_innerShadow_0_129" result="effect2_innerShadow_0_129"/>
</filter>
<filter id="filter8_ii_0_129" x="1284" y="592" width="11" height="308" filterUnits="userSpaceOnUse" color-interpolation-filters="sRGB">
<feFlood flood-opacity="0" result="BackgroundImageFix"/>
<feBlend mode="normal" in="SourceGraphic" in2="BackgroundImageFix" result="shape"/>
<feColorMatrix in="SourceAlpha" type="matrix" values="0 0 0 0 0 0 0 0 0 0 0 0 0 0 0 0 0 0 127 0" result="hardAlpha"/>
<feOffset dy="6"/>
<feGaussianBlur stdDeviation="1.5"/>
<feComposite in2="hardAlpha" operator="arithmetic" k2="-1" k3="1"/>
<feColorMatrix type="matrix" values="0 0 0 0 0 0 0 0 0 0 0 0 0 0 0 0 0 0 0.757614 0"/>
<feBlend mode="normal" in2="shape" result="effect1_innerShadow_0_129"/>
<feColorMatrix in="SourceAlpha" type="matrix" values="0 0 0 0 0 0 0 0 0 0 0 0 0 0 0 0 0 0 127 0" result="hardAlpha"/>
<feOffset dy="-6"/>
<feGaussianBlur stdDeviation="1.5"/>
<feComposite in2="hardAlpha" operator="arithmetic" k2="-1" k3="1"/>
<feColorMatrix type="matrix" values="0 0 0 0 0 0 0 0 0 0 0 0 0 0 0 0 0 0 0.757614 0"/>
<feBlend mode="normal" in2="effect1_innerShadow_0_129" result="effect2_innerShadow_0_129"/>
</filter>
<filter id="filter9_iii_0_129" x="570" y="93" width="156" height="21" filterUnits="userSpaceOnUse" color-interpolation-filters="sRGB">
<feFlood flood-opacity="0" result="BackgroundImageFix"/>
<feBlend mode="normal" in="SourceGraphic" in2="BackgroundImageFix" result="shape"/>
<feColorMatrix in="SourceAlpha" type="matrix" values="0 0 0 0 0 0 0 0 0 0 0 0 0 0 0 0 0 0 127 0" result="hardAlpha"/>
<feMorphology radius="4" operator="erode" in="SourceAlpha" result="effect1_innerShadow_0_129"/>
<feOffset/>
<feGaussianBlur stdDeviation="2"/>
<feComposite in2="hardAlpha" operator="arithmetic" k2="-1" k3="1"/>
<feColorMatrix type="matrix" values="0 0 0 0 0 0 0 0 0 0 0 0 0 0 0 0 0 0 0.795035 0"/>
<feBlend mode="normal" in2="shape" result="effect1_innerShadow_0_129"/>
<feColorMatrix in="SourceAlpha" type="matrix" values="0 0 0 0 0 0 0 0 0 0 0 0 0 0 0 0 0 0 127 0" result="hardAlpha"/>
<feOffset dy="-4"/>
<feComposite in2="hardAlpha" operator="arithmetic" k2="-1" k3="1"/>
<feColorMatrix type="matrix" values="0 0 0 0 0 0 0 0 0 0 0 0 0 0 0 0 0 0 0.80013 0"/>
<feBlend mode="normal" in2="effect1_innerShadow_0_129" result="effect2_innerShadow_0_129"/>
<feColorMatrix in="SourceAlpha" type="matrix" values="0 0 0 0 0 0 0 0 0 0 0 0 0 0 0 0 0 0 127 0" result="hardAlpha"/>
<feOffset dy="-2"/>
<feComposite in2="hardAlpha" operator="arithmetic" k2="-1" k3="1"/>
<feColorMatrix type="matrix" values="0 0 0 0 1 0 0 0 0 1 0 0 0 0 1 0 0 0 0.197067 0"/>
<feBlend mode="normal" in2="effect2_innerShadow_0_129" result="effect3_innerShadow_0_129"/>
</filter>
<filter id="filter10_dd_0_129" x="765" y="83" width="40" height="40" filterUnits="userSpaceOnUse" color-interpolation-filters="sRGB">
<feFlood flood-opacity="0" result="BackgroundImageFix"/>
<feColorMatrix in="SourceAlpha" type="matrix" values="0 0 0 0 0 0 0 0 0 0 0 0 0 0 0 0 0 0 127 0" result="hardAlpha"/>
<feMorphology radius="5" operator="dilate" in="SourceAlpha" result="effect1_dropShadow_0_129"/>
<feOffset/>
<feGaussianBlur stdDeviation="2.5"/>
<feColorMatrix type="matrix" values="0 0 0 0 0 0 0 0 0 0 0 0 0 0 0 0 0 0 0.4 0"/>
<feBlend mode="normal" in2="BackgroundImageFix" result="effect1_dropShadow_0_129"/>
<feColorMatrix in="SourceAlpha" type="matrix" values="0 0 0 0 0 0 0 0 0 0 0 0 0 0 0 0 0 0 127 0" result="hardAlpha"/>
<feMorphology radius="2" operator="dilate" in="SourceAlpha" result="effect2_dropShadow_0_129"/>
<feOffset/>
<feColorMatrix type="matrix" values="0 0 0 0 0 0 0 0 0 0 0 0 0 0 0 0 0 0 1 0"/>
<feBlend mode="normal" in2="effect1_dropShadow_0_129" result="effect2_dropShadow_0_129"/>
<feBlend mode="normal" in="SourceGraphic" in2="effect2_dropShadow_0_129" result="shape"/>
</filter>
<filter id="filter11_f_0_129" x="768.637" y="87.7857" width="17.5716" height="26.9651" filterUnits="userSpaceOnUse" color-interpolation-filters="sRGB">
<feFlood flood-opacity="0" result="BackgroundImageFix"/>
<feBlend mode="normal" in="SourceGraphic" in2="BackgroundImageFix" result="shape"/>
<feGaussianBlur stdDeviation="2.71828" result="effect1_foregroundBlur_0_129"/>
</filter>
<filter id="filter12_f_0_129" x="781.563" y="87.5634" width="22.8731" height="25.8731" filterUnits="userSpaceOnUse" color-interpolation-filters="sRGB">
<feFlood flood-opacity="0" result="BackgroundImageFix"/>
<feBlend mode="normal" in="SourceGraphic" in2="BackgroundImageFix" result="shape"/>
<feGaussianBlur stdDeviation="2.71828" result="effect1_foregroundBlur_0_129"/>
</filter>
<filter id="filter13_f_0_129" x="774.318" y="100.553" width="25.5701" height="20.3607" filterUnits="userSpaceOnUse" color-interpolation-filters="sRGB">
<feFlood flood-opacity="0" result="BackgroundImageFix"/>
<feBlend mode="normal" in="SourceGraphic" in2="BackgroundImageFix" result="shape"/>
<feGaussianBlur stdDeviation="2.04084" result="effect1_foregroundBlur_0_129"/>
</filter>
<linearGradient id="paint0_linear_0_129" x1="607.343" y1="19" x2="607.343" y2="182.414" gradientUnits="userSpaceOnUse">
<stop stop-opacity="0.901495"/>
<stop offset="1" stop-opacity="0.01"/>
</linearGradient>
<linearGradient id="paint1_linear_0_129" x1="692.261" y1="2571" x2="692.261" y2="2390.61" gradientUnits="userSpaceOnUse">
<stop stop-opacity="0.9"/>
<stop offset="1" stop-opacity="0.01"/>
</linearGradient>
<linearGradient id="paint2_linear_0_129" x1="606.55" y1="28" x2="606.55" y2="190.133" gradientUnits="userSpaceOnUse">
<stop stop-opacity="0.5"/>
<stop offset="1" stop-opacity="0.01"/>
</linearGradient>
<linearGradient id="paint3_linear_0_129" x1="692.704" y1="2560" x2="692.704" y2="2381.02" gradientUnits="userSpaceOnUse">
<stop stop-opacity="0.5"/>
<stop offset="1" stop-opacity="0.01"/>
</linearGradient>
<linearGradient id="paint4_linear_0_129" x1="27" y1="19" x2="27" y2="2571" gradientUnits="userSpaceOnUse">
<stop stop-color="#5F5F5F"/>
<stop offset="0.0101238" stop-color="#222222"/>
<stop offset="1" stop-color="#252525"/>
</linearGradient>
<linearGradient id="paint5_linear_0_129" x1="40" y1="31" x2="40" y2="2557" gradientUnits="userSpaceOnUse">
<stop stop-color="#6D6D6D"/>
<stop offset="0.0161168"/>
<stop offset="0.984697"/>
<stop offset="1" stop-color="#5C5C5C"/>
</linearGradient>
<radialGradient id="paint6_radial_0_129" cx="0" cy="0" r="1" gradientUnits="userSpaceOnUse" gradientTransform="translate(618.922 2531.56) rotate(90) scale(731.44 256.844)">
<stop stop-color="white" stop-opacity="0.151268"/>
<stop offset="1" stop-color="white" stop-opacity="0.01"/>
</radialGradient>
<linearGradient id="paint7_linear_0_129" x1="2.98997" y1="408.728" x2="6.01358" y2="408.728" gradientUnits="userSpaceOnUse">
<stop stop-color="#A5A5A5"/>
<stop offset="0.00734796" stop-color="#FBFBFB"/>
<stop offset="0.98213" stop-color="#F6F6F6"/>
<stop offset="1" stop-color="#BFBFBF"/>
</linearGradient>
<linearGradient id="paint8_linear_0_129" x1="2.98997" y1="644.583" x2="6.01358" y2="644.583" gradientUnits="userSpaceOnUse">
<stop stop-color="#A5A5A5"/>
<stop offset="0.00734796" stop-color="#FBFBFB"/>
<stop offset="0.98213" stop-color="#F6F6F6"/>
<stop offset="1" stop-color="#BFBFBF"/>
</linearGradient>
<linearGradient id="paint9_linear_0_129" x1="2.98997" y1="881.583" x2="6.01358" y2="881.583" gradientUnits="userSpaceOnUse">
<stop stop-color="#A5A5A5"/>
<stop offset="0.00734796" stop-color="#FBFBFB"/>
<stop offset="0.98213" stop-color="#F6F6F6"/>
<stop offset="1" stop-color="#BFBFBF"/>
</linearGradient>
<linearGradient id="paint10_linear_0_129" x1="1291.2" y1="733.185" x2="1291.03" y2="733.185" gradientUnits="userSpaceOnUse">
<stop stop-color="#898888"/>
<stop offset="1" stop-color="#D8D8D8"/>
</linearGradient>
<linearGradient id="paint11_linear_0_129" x1="1295" y1="595" x2="1295" y2="897" gradientUnits="userSpaceOnUse">
<stop stop-opacity="0.996971"/>
<stop offset="0.0951211" stop-opacity="0.01"/>
<stop offset="0.895463" stop-opacity="0.01"/>
<stop offset="1" stop-opacity="0.881058"/>
</linearGradient>
<radialGradient id="paint12_radial_0_129" cx="0" cy="0" r="1" gradientUnits="userSpaceOnUse" gradientTransform="translate(812.002 134.968) rotate(45.1938) scale(38.2513)">
<stop stop-color="#434343"/>
<stop offset="1" stop-color="#121212"/>
</radialGradient>
<radialGradient id="paint13_radial_0_129" cx="0" cy="0" r="1" gradientUnits="userSpaceOnUse" gradientTransform="translate(785 93) rotate(90) scale(20)">
<stop stop-color="#2A4893"/>
<stop offset="1" stop-color="#213054"/>
</radialGradient>
<clipPath id="clip0_0_129">
<rect width="1279" height="2590" fill="white" transform="translate(8)"/>
</clipPath>
<clipPath id="clip1_0_129">
<rect width="150" height="4" fill="white" transform="translate(573 2586)"/>
</clipPath>
<clipPath id="clip2_0_129">
<rect width="1215" height="2490" fill="white" transform="translate(41 48)"/>
</clipPath>
<clipPath id="clip3_0_129">
<rect width="1295" height="610" fill="white" transform="translate(0 350)"/>
</clipPath>
<clipPath id="clip4_0_129">
<rect width="156" height="21" fill="white" transform="translate(570 93)"/>
</clipPath>
<clipPath id="clip5_0_129">
<rect width="38" height="38" fill="white" transform="translate(766 84)"/>
</clipPath>
</defs>
</svg>
